Coordinates
version=1
nRows=16
nColumns=33
inDegrees=yes

Units are S.I. units (second, meters, Newtons, ...)
Angles are in degrees.

endheader
time	ground_thorax_rot_x	ground_thorax_rot_y	ground_thorax_rot_z	ground_thorax_tx	ground_thorax_ty	ground_thorax_tz	clav_prot_r	clav_elev_r	scapula_abduction_r	scapula_elevation_r	scapula_upward_rot_r	scapula_winging_r	shoulder_elv_r	plane_of_elev_r	axial_rot_r	elbow_flexion_r	pro_sup_r	wrist_flex_r	wrist_dev_r	clav_prot_l	clav_elev_l	scapula_abduction_l	scapula_elevation_l	scapula_upward_rot_l	scapula_winging_l	shoulder_elv_l	plane_of_elev_l	axial_rot_l	elbow_flexion_l	pro_sup_l	wrist_flex_l	wrist_dev_l
      1.59000000	      1.53882315	      8.66115607	     -2.28373579	     -0.15605291	      1.00417054	      0.00871184	    -14.67991162	    -17.48833565	    -17.74355356	    -11.83107783	      5.84047601	      7.37964948	     40.98387577	    -11.19596679	     27.60802895	     26.83534141	      5.27425389	     -2.50981581	     21.90042964	      4.93417021	     -9.81170430	    -10.11251309	     -1.16972889	    -10.20715086	      0.43081000	     49.77465297	     -3.32792290	    -12.02084616	     37.20541145	      9.61781339	     23.85383423	      7.90384894
      1.60000000	      1.64279612	      8.81706777	     -2.28783106	     -0.15552768	      1.00467854	      0.00865710	    -14.69299985	    -17.62310149	    -17.77378471	    -11.94919995	      5.80322029	      7.47696635	     40.89717514	    -10.78881808	     26.59666973	     25.90468233	      6.85953486	     -2.20511684	     21.54838433	      5.16034524	    -10.18616931	    -10.57647398	     -0.75669657	    -10.02846586	      0.48530303	     49.41937144	     -2.31742945	    -12.44789034	     34.43484674	     11.71963791	     22.68077685	      6.99103621
      1.61000000	      1.61589404	      8.88202001	     -2.26828840	     -0.15532369	      1.00486941	      0.00857473	    -14.59289732	    -17.67715765	    -17.60787620	    -11.99086677	      5.78875129	      7.50514480	     40.64901855	    -10.26512383	     25.74418705	     24.87662557	      8.52808666	     -1.95192145	     20.94652857	      5.43011905	    -10.20240439	    -11.09934880	     -0.67095321	     -9.84590758	      0.69200117	     49.05810055	     -1.27250355	    -13.39950469	     32.03537067	     14.71178681	     20.76708833	      5.88111500
      1.62000000	      1.56364599	      8.62459201	     -2.34323744	     -0.15501158	      1.00504828	      0.00852765	    -14.30388807	    -17.85393712	    -17.07542659	    -12.16126475	      5.83755019	      7.57336090	     40.51729880	     -9.84148617	     25.10863419	     24.01388319	     10.16943820	     -1.68344881	     20.61806172	      5.61174824	    -10.10289358	    -11.63333920	     -0.46322422	     -9.11358240	      0.98133131	     48.60994308	     -0.41171191	    -10.57083265	     29.14719871	     12.12285241	     24.58667185	      3.11266938
      1.63000000	      1.66207146	      8.57598744	     -2.35478611	     -0.15470386	      1.00567512	      0.00863006	    -14.22687026	    -18.07540097	    -16.92658376	    -12.37145777	      5.83820661	      7.71642522	     40.53539779	     -9.56285396	     24.69387016	     23.32717503	     10.48210078	     -1.80386087	     20.36086391	      5.80391504	    -10.64017778	    -12.02614376	      0.07099251	     -8.99685889	      0.94087460	     48.60780968	      0.10867165	    -10.54983921	     27.33236413	     12.48903386	     24.49852496	      3.59019674
      1.64000000	      1.57130486	      8.74757597	     -2.33607524	     -0.15436469	      1.00540988	      0.00854902	    -14.26783358	    -17.82964594	    -17.02288798	    -12.13291403	      5.83002845	      7.55938258	     40.05518766	     -9.04839781	     23.36435073	     22.88145463	     11.90550772	     -1.32673581	     19.31146723	      6.15130659	    -10.47193180	    -12.52947431	     -0.20396590	     -9.27864523	      1.18509287	     48.57311698	      1.71694180	    -10.24207373	     25.32818009	     13.45657466	     23.57258288	      3.74674257
      1.65000000	      1.63314059	      8.62948043	     -2.43677200	     -0.15410968	      1.00589819	      0.00862413	    -14.18023773	    -18.05566583	    -16.81331246	    -12.37229550	      5.90505270	      7.68641302	     40.06910807	     -8.82549080	     23.12336085	     22.40461835	     12.19136230	     -1.36901210	     19.17751582	      6.31123198	    -10.88063505	    -12.85273714	      0.20977292	     -9.17098152	      1.16478766	     48.61807853	      2.21848606	    -10.09258417	     23.89105530	     13.83166625	     23.37909683	      4.04420689
      1.66000000	      1.52845962	      8.69621598	     -2.37208951	     -0.15384231	      1.00562766	      0.00853691	    -14.14615647	    -17.84882614	    -16.70585123	    -12.21255990	      6.02963081	      7.52275501	     39.59778383	     -8.61263222	     21.98775144	     22.17426756	     13.39136554	     -0.72851246	     18.47025499	      6.63152868	    -10.63207546	    -13.24954351	     -0.21545808	     -9.64411313	      1.39229263	     48.65874747	      3.76821972	     -9.24860310	     22.27679452	     15.21424480	     22.05170623	      3.78166842
      1.67000000	      1.59352469	      8.60832294	     -2.49857422	     -0.15354028	      1.00602800	      0.00859075	    -14.09356532	    -18.01667729	    -16.55458533	    -12.40123406	      6.11668417	      7.61429194	     39.60415150	     -8.45275845	     21.75166622	     21.92215789	     13.54475063	     -0.73141642	     18.38973936	      6.73689233	    -10.99985910	    -13.47714036	      0.16565367	     -9.52531745	      1.35082852	     48.68474206	      4.19950043	     -9.00331230	     21.14071695	     15.58248547	     21.89673428	      3.96544974
      1.68000000	      1.60666912	      8.58578659	     -2.69347185	     -0.15302783	      1.00593086	      0.00851857	    -14.07690652	    -17.97835458	    -16.44531348	    -12.41554673	      6.27109463	      7.56310708	     39.42768697	     -8.27914489	     21.17564373	     21.96563906	     13.82248860	     -0.34977920	     18.01769269	      6.84611693	    -11.04189546	    -13.62384807	      0.14562866	     -9.66262580	      1.38767620	     48.70845799	      5.21840146	     -7.97621822	     20.07399662	     16.38795224	     21.14224424	      3.85953531
      1.69000000	      1.51542279	      8.51523898	     -2.51779306	     -0.15286984	      1.00628114	      0.00863852	    -14.00748644	    -18.04474411	    -16.34879467	    -12.45940695	      6.22347843	      7.60414648	     39.27430046	     -8.25071875	     21.06295558	     21.73936358	     13.88664605	     -0.32611089	     17.94647861	      6.90965155	    -11.23046574	    -13.74319330	      0.32301084	     -9.64506516	      1.36235220	     48.73031490	      5.45505363	     -7.64999505	     19.23507700	     16.65713109	     20.97285609	      3.97525773
      1.70000000	      1.63231867	      8.45646145	     -2.70091977	     -0.15254533	      1.00637956	      0.00853756	    -14.00032472	    -18.08915111	    -16.25431592	    -12.55018192	      6.36590541	      7.61177210	     39.27936333	     -8.10486279	     20.76040156	     21.69539468	     13.90073449	     -0.07679235	     17.69010980	      6.98593265	    -11.38471076	    -13.85840451	      0.43741554	     -9.70420470	      1.34710668	     48.65427681	      6.22097337	     -6.76259642	     18.25522735	     17.04867845	     20.50854292	      4.01037872
      1.71000000	      1.52470565	      8.43319236	     -2.64687776	     -0.15234476	      1.00636932	      0.00851246	    -13.92171309	    -18.04648489	    -16.11847343	    -12.50849558	      6.37827146	      7.56816273	     39.08426812	     -8.07693800	     20.60675899	     21.67742021	     13.87838680	      0.21243100	     17.49365600	      7.05797445	    -11.38059945	    -13.95363726	      0.39370437	     -9.79829447	      1.38439915	     48.69051698	      6.78681529	     -5.84790431	     17.52393187	     17.37415274	     20.01932952	      3.88877345
      1.72000000	      1.54341512	      8.23095847	     -2.61904705	     -0.15201807	      1.00635559	      0.00869500	    -13.91418584	    -18.08936453	    -16.09091902	    -12.55645138	      6.39840508	      7.59510147	     39.01589582	     -7.97320323	     20.57327672	     21.79206797	     13.85986908	      0.27234450	     17.46600767	      7.09994285	    -11.40070919	    -14.01786381	      0.40152037	     -9.82234409	      1.40223650	     48.68573076	      6.86735500	     -5.76895198	     17.41670883	     17.40843393	     19.97554877	      3.87125778
      1.73000000	      1.51268260	      8.19369511	     -2.56677184	     -0.15179083	      1.00638316	      0.00869921	    -13.89699266	    -18.11271020	    -16.06781059	    -12.56929327	      6.37360757	      7.61379781	     38.96184733	     -7.93823710	     20.57397457	     21.82723201	     13.85624814	      0.28701846	     17.46350486	      7.11187446	    -11.45712484	    -14.04439689	      0.45542922	     -9.81324807	      1.39824115	     48.66332694	      6.95048498	     -5.75136029	     17.41647854	     17.41009983	     19.96581287	      3.86487401
      1.74000000	      1.65113590	      8.17601316	     -2.81765894	     -0.15173985	      1.00641532	      0.00854716	    -13.84808317	    -18.09689812	    -15.91099214	    -12.60054595	      6.52015349	      7.57009278	     39.02877875	     -7.88073791	     20.43094951	     22.01053087	     13.78369725	      0.82622447	     17.11731321	      7.20963799	    -11.57764741	    -14.20447683	      0.55405511	     -9.83735341	      1.40690773	     48.55317097	      7.89818880	     -4.24191507	     16.01834831	     17.53733016	     19.41610803	      3.74467434
